<svg width="33" height="33" viewBox="0 0 33 33" fill="none" xmlns="http://www.w3.org/2000/svg">
<path fill-rule="evenodd" clip-rule="evenodd" d="M16.5001 4.125C16.9584 4.125 17.3867 4.35343 17.6421 4.73413L22.8396 12.4839L29.2219 5.29668C29.6333 4.83347 30.3036 4.70253 30.859 4.97685C31.4145 5.25118 31.7178 5.86305 31.6 6.47122L27.9065 25.5346C27.5307 27.4742 25.8324 28.875 23.8568 28.875H9.14343C7.16778 28.875 5.46953 27.4742 5.09374 25.5346L1.4002 6.47122C1.28237 5.86305 1.58577 5.25118 2.14119 4.97685C2.69661 4.70253 3.36689 4.83347 3.77824 5.29668L10.1606 12.4839L15.3582 4.73413C15.6135 4.35343 16.0417 4.125 16.5001 4.125ZM16.5001 7.96858L11.4546 15.4917C11.2175 15.8451 10.8302 16.0689 10.4056 16.0977C9.98103 16.1264 9.56704 15.957 9.28447 15.6388L5.05471 10.8757L7.79353 25.0115C7.9188 25.6581 8.48488 26.125 9.14343 26.125H23.8568C24.5153 26.125 25.0814 25.6581 25.2066 25.0115L27.9455 10.8757L23.7157 15.6388C23.4332 15.957 23.0191 16.1264 22.5945 16.0977C22.1699 16.0689 21.7827 15.8451 21.5457 15.4917L16.5001 7.96858Z" fill="black"/>
</svg>
