<svg width="70" height="70" viewBox="0 0 70 70" fill="none" xmlns="http://www.w3.org/2000/svg">
<path fill-rule="evenodd" clip-rule="evenodd" d="M4.375 50.3125C4.375 33.3988 18.0863 19.6875 35 19.6875C51.9137 19.6875 65.625 33.3988 65.625 50.3125H4.375ZM37.1875 15.3125V10.9375H41.5625C42.7722 10.9375 43.75 9.95969 43.75 8.75C43.75 7.5425 42.7722 6.5625 41.5625 6.5625H28.4375C27.2278 6.5625 26.25 7.5425 26.25 8.75C26.25 9.95969 27.2278 10.9375 28.4375 10.9375H32.8125C32.8125 10.9375 32.7972 15.4919 32.8125 15.3125C14.5075 16.4478 0 31.7209 0 50.3125V52.5C0 53.7097 0.977813 54.6875 2.1875 54.6875H67.8125C69.0222 54.6875 70 53.7097 70 52.5V50.3125C70 31.7209 55.4925 16.4478 37.1875 15.3125ZM67.8125 59.0625H2.1875C0.977813 59.0625 0 60.0425 0 61.25C0 62.4597 0.977813 63.4375 2.1875 63.4375H67.8125C69.0222 63.4375 70 62.4597 70 61.25C70 60.0425 69.0222 59.0625 67.8125 59.0625Z" fill="black"/>
</svg>
