<svg width="70" height="70" viewBox="0 0 70 70" fill="none" xmlns="http://www.w3.org/2000/svg">
<path d="M60.6287 26.3171C60.2641 26.3958 55.37 27.5363 49.0991 31.4913C48.1571 26.9208 45.3687 18.3633 37.1175 9.66001L35 7.42584L32.8825 9.66293C24.6021 18.3983 21.8254 26.9792 20.8921 31.5788C14.5979 27.5567 9.74165 26.4017 9.38581 26.32L5.83331 25.5267V29.1667C5.83331 50.4292 17.2812 64.1667 35 64.1667C52.4446 64.1667 64.1666 50.1025 64.1666 29.1667V25.5442L60.6287 26.3171ZM26.2471 35.1108C26.2529 35.0146 26.6904 26.0692 35 16.0592C43.2075 25.9758 43.75 35 43.75 35V35.3646C40.4791 38.0827 37.5332 41.1695 34.9708 44.5638C32.4012 41.2295 29.476 38.185 26.2471 35.4842V35.1108ZM35 58.3333C19.495 58.3333 12.9821 46.095 11.8504 33.355C16.6775 35.4492 25.3137 40.4308 32.5791 51.2138L35.0321 54.8567L37.4383 51.1817C44.5141 40.3667 53.2612 35.3996 58.135 33.3258C56.9741 45.6575 50.47 58.3333 35 58.3333Z" fill="black"/>
</svg>
